{"asset":{"version":"2.0","generator":"babylon.js glTF exporter for 3dsmax 2021 v20221031.2"},"scene":0,"scenes":[{"nodes":[0,1,2,3,4,5,6,7,8,9,10]}],"nodes":[{"mesh":0,"translation":[11.3047323,0.0,-6.752766],"name":"dongbei"},{"mesh":1,"translation":[11.3047323,0.0,-6.752766],"name":"jingjinji"},{"mesh":2,"translation":[2.04767585,0.0,2.369423],"name":"xibei"},{"mesh":3,"translation":[0.738580942,0.0,7.87348557],"name":"xinan"},{"mesh":4,"translation":[3.65861,0.0,8.085412],"name":"dawanqu"},{"mesh":5,"translation":[2.57682252,0.0,4.45543766],"name":"chuanyu"},{"mesh":6,"translation":[5.39276743,0.0,4.91844463],"name":"zhongbu"},{"mesh":7,"translation":[6.634507,0.0,2.05407929],"name":"suwwan"},{"mesh":8,"translation":[7.938001,0.0,0.6931771],"name":"beibu"},{"mesh":9,"translation":[8.181736,0.0,8.078107],"name":"taiwan"},{"mesh":10,"translation":[8.58317852,0.0,3.955086],"name":"changsanjiao"}],"meshes":[{"primitives":[{"attributes":{"POSITION":1,"NORMAL":2,"TEXCOORD_0":3},"indices":0,"material":0},{"attributes":{"POSITION":5,"NORMAL":6,"TEXCOORD_0":7},"indices":4,"material":1}],"name":"dongbei"},{"primitives":[{"attributes":{"POSITION":9,"NORMAL":10,"TEXCOORD_0":11},"indices":8,"material":0},{"attributes":{"POSITION":13,"NORMAL":14,"TEXCOORD_0":15},"indices":12,"material":1}],"name":"jingjinji"},{"primitives":[{"attributes":{"POSITION":17,"NORMAL":18,"TEXCOORD_0":19},"indices":16,"material":0},{"attributes":{"POSITION":21,"NORMAL":22,"TEXCOORD_0":23},"indices":20,"material":1}],"name":"xibei"},{"primitives":[{"attributes":{"POSITION":25,"NORMAL":26,"TEXCOORD_0":27},"indices":24,"material":0},{"attributes":{"POSITION":29,"NORMAL":30,"TEXCOORD_0":31},"indices":28,"material":1}],"name":"xinan"},{"primitives":[{"attributes":{"POSITION":33,"NORMAL":34,"TEXCOORD_0":35},"indices":32,"material":0},{"attributes":{"POSITION":37,"NORMAL":38,"TEXCOORD_0":39},"indices":36,"material":1}],"name":"dawanqu"},{"primitives":[{"attributes":{"POSITION":41,"NORMAL":42,"TEXCOORD_0":43},"indices":40,"material":0},{"attributes":{"POSITION":45,"NORMAL":46,"TEXCOORD_0":47},"indices":44,"material":1}],"name":"chuanyu"},{"primitives":[{"attributes":{"POSITION":49,"NORMAL":50,"TEXCOORD_0":51},"indices":48,"material":0},{"attributes":{"POSITION":53,"NORMAL":54,"TEXCOORD_0":55},"indices":52,"material":1}],"name":"zhongbu"},{"primitives":[{"attributes":{"POSITION":57,"NORMAL":58,"TEXCOORD_0":59},"indices":56,"material":0},{"attributes":{"POSITION":61,"NORMAL":62,"TEXCOORD_0":63},"indices":60,"material":1}],"name":"suwwan"},{"primitives":[{"attributes":{"POSITION":65,"NORMAL":66,"TEXCOORD_0":67},"indices":64,"material":0},{"attributes":{"POSITION":69,"NORMAL":70,"TEXCOORD_0":71},"indices":68,"material":1}],"name":"beibu"},{"primitives":[{"attributes":{"POSITION":73,"NORMAL":74,"TEXCOORD_0":75},"indices":72,"material":0},{"attributes":{"POSITION":77,"NORMAL":78,"TEXCOORD_0":79},"indices":76,"material":1}],"name":"taiwan"},{"primitives":[{"attributes":{"POSITION":81,"NORMAL":82,"TEXCOORD_0":83},"indices":80,"material":0},{"attributes":{"POSITION":85,"NORMAL":86,"TEXCOORD_0":87},"indices":84,"material":1}],"name":"changsanjiao"}],"accessors":[{"bufferView":0,"componentType":5123,"count":630,"type":"SCALAR","name":"accessorIndices"},{"bufferView":1,"componentType":5126,"count":213,"max":[3.401925,8.94069652E-10,6.4178257],"min":[-7.76981544,-5.12599918E-08,-3.80649042],"type":"VEC3","name":"accessorPositions"},{"bufferView":1,"byteOffset":2556,"componentType":5126,"count":213,"type":"VEC3","name":"accessorNormals"},{"bufferView":2,"componentType":5126,"count":213,"type":"VEC2","name":"accessorUVs"},{"bufferView":0,"byteOffset":1260,"componentType":5123,"count":1164,"type":"SCALAR","name":"accessorIndices"},{"bufferView":1,"byteOffset":5112,"componentType":5126,"count":776,"max":[3.401925,8.94069652E-10,6.4178257],"min":[-7.76981544,-0.9823633,-3.80649042],"type":"VEC3","name":"accessorPositions"},{"bufferView":1,"byteOffset":14424,"componentType":5126,"count":776,"type":"VEC3","name":"accessorNormals"},{"bufferView":2,"byteOffset":1704,"componentType":5126,"count":776,"type":"VEC2","name":"accessorUVs"},{"bufferView":0,"byteOffset":3588,"componentType":5123,"count":273,"type":"SCALAR","name":"accessorIndices"},{"bufferView":1,"byteOffset":23736,"componentType":5126,"count":93,"max":[-3.63237667,1.50129189E-08,8.008506],"min":[-6.683586,-4.30643539E-08,3.95293236],"type":"VEC3","name":"accessorPositions"},{"bufferView":1,"byteOffset":24852,"componentType":5126,"count":93,"type":"VEC3","name":"accessorNormals"},{"bufferView":2,"byteOffset":7912,"componentType":5126,"count":93,"type":"VEC2","name":"accessorUVs"},{"bufferView":0,"byteOffset":4136,"componentType":5123,"count":558,"type":"SCALAR","name":"accessorIndices"},{"bufferView":1,"byteOffset":25968,"componentType":5126,"count":372,"max":[-3.63237667,1.50129189E-08,8.008506],"min":[-6.683586,-0.9881323,3.95293236],"type":"VEC3","name":"accessorPositions"},{"bufferView":1,"byteOffset":30432,"componentType":5126,"count":372,"type":"VEC3","name":"accessorNormals"},{"bufferView":2,"byteOffset":8656,"componentType":5126,"count":372,"type":"VEC2","name":"accessorUVs"},{"bufferView":0,"byteOffset":5252,"componentType":5123,"count":975,"type":"SCALAR","name":"accessorIndices"},{"bufferView":1,"byteOffset":34896,"componentType":5126,"count":311,"max":[1.53755653,6.37304041E-08,1.38046372],"min":[-16.3150349,-8.255243E-08,-9.563044],"type":"VEC3","name":"accessorPositions"},{"bufferView":1,"byteOffset":38628,"componentType":5126,"count":311,"type":"VEC3","name":"accessorNormals"},{"bufferView":2,"byteOffset":11632,"componentType":5126,"count":311,"type":"VEC2","name":"accessorUVs"},{"bufferView":0,"byteOffset":7204,"componentType":5123,"count":1770,"type":"SCALAR","name":"accessorIndices"},{"bufferView":1,"byteOffset":42360,"componentType":5126,"count":1205,"max":[1.53755677,6.37304041E-08,1.38046384],"min":[-16.3150349,-0.9859223,-9.563044],"type":"VEC3","name":"accessorPositions"},{"bufferView":1,"byteOffset":56820,"componentType":5126,"count":1205,"type":"VEC3","name":"accessorNormals"},{"bufferView":2,"byteOffset":14120,"componentType":5126,"count":1205,"type":"VEC2","name":"accessorUVs"},{"bufferView":0,"byteOffset":10744,"componentType":5123,"count":834,"type":"SCALAR","name":"accessorIndices"},{"bufferView":1,"byteOffset":71280,"componentType":5126,"count":269,"max":[3.22298479,9.236857E-08,1.38513243],"min":[-3.61494184,-5.72204577E-08,-2.83047366],"type":"VEC3","name":"accessorPositions"},{"bufferView":1,"byteOffset":74508,"componentType":5126,"count":269,"type":"VEC3","name":"accessorNormals"},{"bufferView":2,"byteOffset":23760,"componentType":5126,"count":269,"type":"VEC2","name":"accessorUVs"},{"bufferView":0,"byteOffset":12412,"componentType":5123,"count":1488,"type":"SCALAR","name":"accessorIndices"},{"bufferView":1,"byteOffset":77736,"componentType":5126,"count":1009,"max":[3.22298479,0.0,1.38513243],"min":[-3.61494184,-0.9890182,-2.83047366],"type":"VEC3","name":"accessorPositions"},{"bufferView":1,"byteOffset":89844,"componentType":5126,"count":1009,"type":"VEC3","name":"accessorNormals"},{"bufferView":2,"byteOffset":25912,"componentType":5126,"count":1009,"type":"VEC2","name":"accessorUVs"},{"bufferView":0,"byteOffset":15388,"componentType":5123,"count":255,"type":"SCALAR","name":"accessorIndices"},{"bufferView":1,"byteOffset":101952,"componentType":5126,"count":89,"max":[2.74901676,1.335144E-07,2.763765],"min":[-1.32573915,0.0,-0.9914557],"type":"VEC3","name":"accessorPositions"},{"bufferView":1,"byteOffset":103020,"componentType":5126,"count":89,"type":"VEC3","name":"accessorNormals"},{"bufferView":2,"byteOffset":33984,"componentType":5126,"count":89,"type":"VEC2","name":"accessorUVs"},{"bufferView":0,"byteOffset":15900,"componentType":5123,"count":534,"type":"SCALAR","name":"accessorIndices"},{"bufferView":1,"byteOffset":104088,"componentType":5126,"count":356,"max":[2.74901676,1.335144E-07,2.763765],"min":[-1.32573915,-0.9709097,-0.9914557],"type":"VEC3","name":"accessorPositions"},{"bufferView":1,"byteOffset":108360,"componentType":5126,"count":356,"type":"VEC3","name":"accessorNormals"},{"bufferView":2,"byteOffset":34696,"componentType":5126,"count":356,"type":"VEC2","name":"accessorUVs"},{"bufferView":0,"byteOffset":16968,"componentType":5123,"count":903,"type":"SCALAR","name":"accessorIndices"},{"bufferView":1,"byteOffset":112632,"componentType":5126,"count":302,"max":[0.469398171,1.13993881E-08,2.3545413],"min":[-14.5462732,-3.0789522E-08,-3.46367812],"type":"VEC3","name":"accessorPositions"},{"bufferView":1,"byteOffset":116256,"componentType":5126,"count":302,"type":"VEC3","name":"accessorNormals"},{"bufferView":2,"byteOffset":37544,"componentType":5126,"count":302,"type":"VEC2","name":"accessorUVs"},{"bufferView":0,"byteOffset":18776,"componentType":5123,"count":1806,"type":"SCALAR","name":"accessorIndices"},{"bufferView":1,"byteOffset":119880,"componentType":5126,"count":1232,"max":[0.469398171,1.13993881E-08,2.3545413],"min":[-14.5462732,-0.9763873,-3.46367812],"type":"VEC3","name":"accessorPositions"},{"bufferView":1,"byteOffset":134664,"componentType":5126,"count":1232,"type":"VEC3","name":"accessorNormals"},{"bufferView":2,"byteOffset":39960,"componentType":5126,"count":1232,"type":"VEC2","name":"accessorUVs"},{"bufferView":0,"byteOffset":22388,"componentType":5123,"count":600,"type":"SCALAR","name":"accessorIndices"},{"bufferView":1,"byteOffset":149448,"componentType":5126,"count":194,"max":[1.56888,3.086403E-08,2.68637872],"min":[-3.184599,-3.81469718E-08,-3.85353017],"type":"VEC3","name":"accessorPositions"},{"bufferView":1,"byteOffset":151776,"componentType":5126,"count":194,"type":"VEC3","name":"accessorNormals"},{"bufferView":2,"byteOffset":49816,"componentType":5126,"count":194,"type":"VEC2","name":"accessorUVs"},{"bufferView":0,"byteOffset":23588,"componentType":5123,"count":1107,"type":"SCALAR","name":"accessorIndices"},{"bufferView":1,"byteOffset":154104,"componentType":5126,"count":743,"max":[1.56888,3.086403E-08,2.68637872],"min":[-3.184599,-0.987775564,-3.85353017],"type":"VEC3","name":"accessorPositions"},{"bufferView":1,"byteOffset":163020,"componentType":5126,"count":743,"type":"VEC3","name":"accessorNormals"},{"bufferView":2,"byteOffset":51368,"componentType":5126,"count":743,"type":"VEC2","name":"accessorUVs"},{"bufferView":0,"byteOffset":25804,"componentType":5123,"count":249,"type":"SCALAR","name":"accessorIndices"},{"bufferView":1,"byteOffset":171936,"componentType":5126,"count":84,"max":[2.0109868,0.000178813934,2.934349],"min":[-1.35618222,0.0,-0.226408541],"type":"VEC3","name":"accessorPositions"},{"bufferView":1,"byteOffset":172944,"componentType":5126,"count":84,"type":"VEC3","name":"accessorNormals"},{"bufferView":2,"byteOffset":57312,"componentType":5126,"count":84,"type":"VEC2","name":"accessorUVs"},{"bufferView":0,"byteOffset":26304,"componentType":5123,"count":498,"type":"SCALAR","name":"accessorIndices"},{"bufferView":1,"byteOffset":173952,"componentType":5126,"count":332,"max":[2.0109868,0.000178813934,2.934349],"min":[-1.35618222,-0.9955295,-0.226408541],"type":"VEC3","name":"accessorPositions"},{"bufferView":1,"byteOffset":177936,"componentType":5126,"count":332,"type":"VEC3","name":"accessorNormals"},{"bufferView":2,"byteOffset":57984,"componentType":5126,"count":332,"type":"VEC2","name":"accessorUVs"},{"bufferView":0,"byteOffset":27300,"componentType":5123,"count":672,"type":"SCALAR","name":"accessorIndices"},{"bufferView":1,"byteOffset":181920,"componentType":5126,"count":218,"max":[1.02977836,6.72228637E-08,1.52853453],"min":[-11.033493,-1.450628E-07,-3.92498779],"type":"VEC3","name":"accessorPositions"},{"bufferView":1,"byteOffset":184536,"componentType":5126,"count":218,"type":"VEC3","name":"accessorNormals"},{"bufferView":2,"byteOffset":60640,"componentType":5126,"count":218,"type":"VEC2","name":"accessorUVs"},{"bufferView":0,"byteOffset":28644,"componentType":5123,"count":1248,"type":"SCALAR","name":"accessorIndices"},{"bufferView":1,"byteOffset":187152,"componentType":5126,"count":834,"max":[1.02977836,6.72228637E-08,1.52853453],"min":[-11.033493,-0.9841295,-3.92498779],"type":"VEC3","name":"accessorPositions"},{"bufferView":1,"byteOffset":197160,"componentType":5126,"count":834,"type":"VEC3","name":"accessorNormals"},{"bufferView":2,"byteOffset":62384,"componentType":5126,"count":834,"type":"VEC2","name":"accessorUVs"},{"bufferView":0,"byteOffset":31140,"componentType":5123,"count":39,"type":"SCALAR","name":"accessorIndices"},{"bufferView":1,"byteOffset":207168,"componentType":5126,"count":15,"max":[0.432138652,0.0,0.9093139],"min":[-0.444395751,0.0,-0.886512458],"type":"VEC3","name":"accessorPositions"},{"bufferView":1,"byteOffset":207348,"componentType":5126,"count":15,"type":"VEC3","name":"accessorNormals"},{"bufferView":2,"byteOffset":69056,"componentType":5126,"count":15,"type":"VEC2","name":"accessorUVs"},{"bufferView":0,"byteOffset":31220,"componentType":5123,"count":90,"type":"SCALAR","name":"accessorIndices"},{"bufferView":1,"byteOffset":207528,"componentType":5126,"count":60,"max":[0.432138652,0.0,0.9093139],"min":[-0.444395751,-0.9927371,-0.886512458],"type":"VEC3","name":"accessorPositions"},{"bufferView":1,"byteOffset":208248,"componentType":5126,"count":60,"type":"VEC3","name":"accessorNormals"},{"bufferView":2,"byteOffset":69176,"componentType":5126,"count":60,"type":"VEC2","name":"accessorUVs"},{"bufferView":0,"byteOffset":31400,"componentType":5123,"count":300,"type":"SCALAR","name":"accessorIndices"},{"bufferView":1,"byteOffset":208968,"componentType":5126,"count":106,"max":[0.21557495,3.027916E-07,4.17934],"min":[-2.83372426,-9.50554337E-08,-0.319879919],"type":"VEC3","name":"accessorPositions"},{"bufferView":1,"byteOffset":210240,"componentType":5126,"count":106,"type":"VEC3","name":"accessorNormals"},{"bufferView":2,"byteOffset":69656,"componentType":5126,"count":106,"type":"VEC2","name":"accessorUVs"},{"bufferView":0,"byteOffset":32000,"componentType":5123,"count":636,"type":"SCALAR","name":"accessorIndices"},{"bufferView":1,"byteOffset":211512,"componentType":5126,"count":426,"max":[0.21557495,3.027916E-07,4.17934],"min":[-2.83372426,-0.9812497,-0.319879919],"type":"VEC3","name":"accessorPositions"},{"bufferView":1,"byteOffset":216624,"componentType":5126,"count":426,"type":"VEC3","name":"accessorNormals"},{"bufferView":2,"byteOffset":70504,"componentType":5126,"count":426,"type":"VEC2","name":"accessorUVs"}],"bufferViews":[{"buffer":0,"byteLength":33272,"name":"bufferViewScalar"},{"buffer":0,"byteOffset":33272,"byteLength":221736,"byteStride":12,"name":"bufferViewFloatVec3"},{"buffer":0,"byteOffset":255008,"byteLength":73912,"byteStride":8,"name":"bufferViewFloatVec2"}],"buffers":[{"uri":"china.bin","byteLength":328920}],"materials":[{"pbrMetallicRoughness":{"baseColorTexture":{"index":0},"metallicFactor":0.0,"roughnessFactor":0.450053632},"name":"02 - Default"},{"pbrMetallicRoughness":{"baseColorTexture":{"index":1},"metallicFactor":0.0,"roughnessFactor":0.450053632},"name":"03 - Default"}],"textures":[{"sampler":0,"source":0,"name":"tex.png"},{"sampler":0,"source":1,"name":"side.png"}],"images":[{"uri":"tex.png"},{"uri":"side.png"}],"samplers":[{"magFilter":9729,"minFilter":9987}]}